<svg xmlns="http://www.w3.org/2000/svg" width="74" height="78" fill="none" viewBox="0 0 74 78"><path stroke="#fff" stroke-miterlimit="10" stroke-width="4" d="M65.314 57.583c-2.06-2.385-7.053-5.865-9.476-7.267-3.154-1.824-3.414-1.973-5.893.142-1.654 1.41-2.753 2.672-4.689 2.198s-6.141-3.146-9.824-7.361-6.145-9.183-6.56-11.398c-.413-2.215.703-3.462 1.92-5.365 1.717-2.683 1.587-3.13.12-6.751-1.144-2.817-4.263-8.495-6.348-10.85-2.23-2.529-2.23-2.082-3.667-1.396a20 20 0 0 0-3.353 2.052c-2.077 1.584-3.23 2.9-4.036 4.878-.806 1.977-1.168 6.614 2.995 15.296 4.163 8.683 7.084 13.123 13.13 20.044 6.044 6.92 10.693 10.642 17.489 15.018 8.406 5.405 11.63 4.351 13.358 3.427s2.88-2.235 4.262-4.62a25 25 0 0 0 1.791-3.845c.599-1.643.988-1.643-1.219-4.202Z"/></svg>